<?xml version="1.0" standalone="no"?>
<!DOCTYPE svg PUBLIC "-//W3C//DTD SVG 20010904//EN"
 "http://www.w3.org/TR/2001/REC-SVG-20010904/DTD/svg10.dtd">
<svg version="1.0" xmlns="http://www.w3.org/2000/svg"
 width="989.000000pt" height="989.000000pt" viewBox="0 0 989.000000 989.000000"
 preserveAspectRatio="xMidYMid meet">
<metadata>
Created by potrace 1.11, written by Peter Selinger 2001-2013
</metadata>
<g transform="translate(0.000000,989.000000) scale(0.100000,-0.100000)"
fill="#000000" stroke="none">
<path d="M4890 8390 c-126 -8 -217 -20 -355 -46 -183 -33 -253 -48 -325 -68
-30 -8 -66 -18 -80 -22 -220 -57 -507 -178 -668 -280 -29 -19 -55 -34 -58 -34
-23 0 -230 -165 -320 -254 -211 -211 -338 -405 -434 -662 -27 -75 -39 -94 -74
-121 -110 -85 -167 -157 -263 -333 -24 -44 -68 -153 -82 -202 -6 -21 -15 -53
-20 -70 -41 -147 -70 -637 -52 -888 15 -201 36 -319 71 -405 5 -11 15 -42 23
-70 8 -27 20 -68 27 -91 19 -62 12 -76 -43 -90 -80 -20 -123 -57 -182 -154
-54 -89 -75 -179 -75 -330 0 -155 34 -384 61 -415 5 -5 9 -15 9 -22 0 -7 11
-36 24 -65 31 -70 72 -174 85 -218 51 -169 65 -212 87 -260 67 -143 150 -221
334 -311 44 -21 82 -45 84 -51 21 -75 77 -234 111 -318 24 -57 134 -277 176
-350 42 -73 227 -336 303 -430 68 -85 248 -268 316 -322 69 -54 172 -131 203
-151 15 -9 27 -21 27 -25 0 -11 -51 -32 -77 -32 -13 0 -31 -4 -41 -9 -26 -14
-118 -41 -141 -41 -11 0 -22 -4 -25 -9 -3 -5 -20 -11 -38 -14 -18 -3 -58 -13
-88 -22 -30 -9 -66 -19 -80 -22 -14 -2 -34 -8 -45 -13 -24 -9 -161 -52 -225
-70 -25 -7 -61 -18 -80 -25 -19 -7 -55 -18 -80 -25 -25 -7 -76 -23 -115 -35
-38 -12 -90 -28 -115 -35 -25 -7 -77 -24 -116 -37 -39 -12 -80 -23 -92 -23
-12 0 -22 -3 -22 -8 0 -4 55 -39 123 -77 513 -293 1071 -489 1632 -574 273
-41 344 -46 715 -46 413 0 548 12 885 75 201 39 468 106 541 136 21 9 45 13
56 11 11 -3 16 -1 11 6 -4 6 2 8 15 5 12 -4 20 -3 17 2 -6 10 195 81 208 73 6
-3 7 -2 4 3 -3 6 28 23 70 38 82 31 491 235 586 292 48 29 56 38 46 50 -6 8
-22 14 -35 14 -13 0 -41 6 -61 14 -21 7 -58 19 -83 26 -25 7 -54 16 -65 20
-11 4 -47 15 -80 25 -33 9 -68 21 -77 26 -10 5 -25 9 -35 9 -17 0 -58 12 -123
35 -19 7 -55 18 -80 25 -66 18 -133 40 -152 51 -10 5 -29 9 -42 9 -14 0 -28 5
-31 10 -3 6 -15 10 -27 10 -21 0 -109 26 -140 41 -10 5 -31 9 -47 9 -17 0 -33
4 -36 10 -3 5 -18 10 -33 10 -15 1 -38 7 -52 15 -14 8 -37 14 -52 15 -15 0
-30 5 -33 10 -3 6 -17 10 -30 10 -13 0 -40 8 -59 17 l-36 17 24 15 c215 141
417 331 596 560 41 54 200 290 200 299 0 3 6 13 14 21 22 26 120 211 164 311
41 93 82 198 113 294 38 115 37 112 107 146 235 111 339 251 411 555 7 27 41
119 75 205 87 213 106 306 106 523 0 191 -25 281 -109 389 -43 55 -105 98
-141 98 -14 0 -34 6 -45 13 -24 18 -18 45 57 282 37 117 49 209 55 425 5 177
9 221 23 250 23 45 57 147 75 228 43 183 -2 394 -131 617 -72 125 -129 240
-175 357 -144 366 -463 717 -846 929 -76 42 -116 65 -139 78 -90 52 -435 181
-483 181 -10 0 -36 8 -57 17 -36 16 -37 17 -14 21 52 8 79 82 42 115 -48 43
-187 80 -437 116 -98 15 -378 20 -515 11z m911 -1885 c139 -21 226 -47 330
-99 107 -53 431 -276 524 -359 11 -10 32 -25 46 -34 28 -16 100 -118 120 -168
6 -16 15 -39 20 -50 32 -71 63 -248 93 -525 22 -196 54 -400 90 -575 34 -164
44 -448 26 -744 -8 -127 -7 -158 5 -181 8 -15 21 -30 30 -34 13 -5 15 -17 10
-73 -3 -38 -10 -86 -15 -108 -5 -22 -16 -74 -25 -115 -8 -41 -20 -91 -25 -110
-14 -58 -41 -153 -50 -180 -4 -14 -13 -45 -20 -70 -25 -89 -93 -289 -121 -357
-5 -13 -13 -33 -18 -45 -15 -38 -139 -290 -163 -333 -30 -52 -70 -117 -80
-130 -5 -5 -41 -57 -80 -115 -126 -184 -284 -362 -422 -473 -21 -18 -53 -44
-70 -58 -38 -31 -204 -149 -211 -149 -2 0 -28 -15 -57 -33 -129 -79 -253 -128
-453 -177 -140 -35 -197 -41 -390 -47 -200 -6 -315 8 -525 64 -30 8 -68 18
-85 23 -30 7 -50 15 -132 51 -24 11 -45 19 -47 19 -14 0 -168 94 -266 163
-280 196 -463 388 -671 702 -169 254 -258 439 -352 725 -45 137 -90 286 -107
350 -4 19 -15 62 -24 95 -8 33 -20 85 -26 115 -7 30 -16 71 -20 90 -5 19 -12
63 -16 97 -6 58 -5 64 21 95 27 32 28 34 21 133 -24 384 -17 622 26 830 31
152 67 383 87 575 28 257 48 368 89 490 35 103 62 150 123 218 74 80 103 160
114 310 l7 94 32 -7 c17 -4 92 -9 166 -12 140 -5 208 2 355 39 175 43 158 43
232 7 67 -32 80 -37 138 -57 192 -67 529 -54 845 33 30 8 89 24 130 36 92 25
231 54 325 67 113 15 362 14 466 -3z m-3490 -1927 c0 -24 2 -51 4 -61 2 -10
-6 -22 -18 -29 -45 -23 -47 -40 -8 -76 29 -27 30 -29 45 -212 17 -205 26 -260
56 -327 14 -33 20 -68 21 -127 1 -95 12 -131 57 -180 26 -29 37 -54 53 -129
22 -97 28 -122 53 -226 9 -35 15 -66 12 -68 -2 -2 -23 6 -47 19 -108 56 -173
165 -230 388 -11 41 -25 86 -31 100 -6 14 -14 34 -18 45 -5 11 -15 38 -25 60
-9 22 -20 49 -24 60 -5 11 -13 31 -19 45 -47 111 -64 217 -65 397 0 168 11
216 69 296 34 47 61 65 97 66 13 1 17 -8 18 -41z m5144 32 c51 -19 94 -85 120
-183 15 -57 17 -89 11 -210 -6 -128 -21 -238 -41 -292 -4 -11 -33 -85 -65
-165 -32 -80 -63 -163 -69 -185 -48 -177 -78 -252 -130 -323 -28 -38 -111
-102 -133 -102 -13 0 -9 32 13 116 25 95 36 141 49 213 6 36 20 68 41 94 50
62 72 161 50 220 -7 18 -5 32 8 53 38 65 71 237 71 378 0 133 8 166 41 185 37
21 39 57 4 73 -22 10 -25 17 -25 68 0 73 5 79 55 60z m-3289 -3468 c28 -26
288 -88 487 -116 171 -25 386 -16 572 25 177 38 286 68 332 91 35 17 231 -6
250 -29 14 -17 -4 -71 -44 -135 -13 -21 -23 -42 -23 -48 0 -5 -4 -10 -8 -10
-4 0 -16 -15 -27 -32 -32 -55 -144 -174 -210 -223 -66 -49 -187 -101 -310
-133 -142 -38 -507 -34 -670 6 -89 23 -199 70 -265 115 -63 43 -155 132 -198
192 -20 27 -39 52 -42 55 -10 10 -30 46 -69 121 -45 91 -42 108 22 110 23 1
53 5 67 9 34 11 124 12 136 2z"/>
<path d="M3788 5189 c-87 -7 -186 -27 -243 -49 -60 -23 -188 -88 -238 -123
-116 -77 -244 -214 -260 -276 -7 -28 8 -61 27 -61 24 0 103 46 177 102 109 83
231 135 342 145 65 7 167 -5 430 -47 110 -18 290 -27 376 -19 105 9 125 25
124 97 -1 60 -22 102 -79 157 -56 55 -98 64 -304 71 -85 2 -177 6 -205 7 -27
2 -94 0 -147 -4z"/>
<path d="M5452 5179 c-117 -11 -145 -23 -200 -84 -60 -68 -79 -127 -56 -180
17 -42 40 -53 132 -61 60 -5 283 13 432 35 353 53 405 50 568 -25 29 -13 55
-24 58 -24 3 0 36 -25 74 -55 78 -62 162 -108 188 -103 10 2 18 14 20 30 10
88 -178 273 -379 371 -121 59 -205 86 -304 97 -94 11 -414 11 -533 -1z"/>
<path d="M3615 4531 c-11 -5 -41 -11 -67 -15 -26 -4 -50 -11 -53 -17 -4 -5
-15 -9 -26 -9 -35 0 -183 -77 -265 -138 -110 -81 -134 -105 -134 -134 0 -44
52 -72 89 -49 10 7 35 -5 85 -40 39 -27 76 -53 82 -58 6 -5 30 -21 55 -36 24
-16 46 -31 49 -34 10 -13 121 -61 140 -61 10 0 21 -4 24 -9 14 -22 258 -32
346 -14 113 24 124 28 297 109 39 19 87 34 105 34 18 0 48 9 66 20 27 16 32
26 32 57 0 53 -18 100 -66 168 -54 78 -121 136 -184 161 -8 3 -23 10 -32 15
-10 5 -25 9 -33 9 -8 0 -23 4 -33 9 -48 26 -163 41 -307 40 -82 0 -159 -4
-170 -8z m-61 -160 c-4 -9 -13 -40 -21 -69 -16 -61 -6 -133 27 -195 11 -20 20
-39 20 -42 0 -12 -38 -2 -71 18 -44 27 -122 80 -129 87 -3 3 -29 21 -57 39
-29 18 -53 39 -53 46 0 22 136 101 220 128 51 17 75 12 64 -12z m563 7 c78
-34 124 -73 175 -146 33 -48 31 -72 -6 -72 -13 0 -70 -22 -127 -49 -57 -27
-108 -45 -112 -41 -5 4 -3 18 4 31 36 65 52 175 30 217 -4 9 -11 29 -15 45 -7
31 5 35 51 15z"/>
<path d="M5720 4528 c-156 -42 -171 -48 -250 -96 -79 -49 -148 -131 -184 -216
-17 -40 -21 -93 -8 -112 12 -19 70 -44 102 -44 16 0 38 -4 48 -10 46 -26 221
-104 252 -112 76 -20 158 -32 220 -31 92 1 210 14 216 24 3 5 14 9 24 9 34 0
132 53 255 137 66 46 125 87 132 92 7 7 22 6 42 -2 26 -9 33 -8 51 8 14 13 20
29 18 49 -5 52 -199 193 -348 254 -26 10 -101 31 -183 51 -56 13 -337 13 -387
-1z m520 -151 c80 -26 212 -108 201 -125 -11 -18 -192 -144 -251 -174 -57 -30
-72 -25 -46 14 21 32 46 115 46 154 0 17 -8 56 -19 87 -10 31 -16 59 -13 62 6
5 20 2 82 -18z m-594 -14 c-28 -116 -26 -181 10 -256 21 -44 15 -54 -23 -34
-73 40 -182 87 -201 87 -11 0 -25 7 -32 15 -10 12 -5 24 29 69 41 56 98 106
119 106 7 0 12 5 12 10 0 6 9 10 19 10 11 0 23 5 26 10 3 6 15 10 27 10 17 0
19 -4 14 -27z"/>
<path d="M4990 4110 c-24 -24 -24 -20 -1 -105 28 -107 40 -198 45 -340 2 -71
9 -152 16 -180 17 -75 31 -128 41 -150 17 -43 28 -122 20 -156 -39 -171 -300
-213 -457 -73 -44 38 -73 43 -97 16 -27 -30 -20 -53 33 -103 119 -112 312
-140 458 -67 146 73 205 204 162 358 -59 212 -57 202 -70 410 -5 91 -15 188
-21 215 -41 178 -77 227 -129 175z"/>
<path d="M4207 2490 c-26 -16 -51 -30 -56 -30 -16 0 -41 -37 -41 -62 0 -14 7
-39 15 -54 8 -16 15 -37 15 -46 0 -20 35 -42 56 -34 8 3 14 14 14 24 0 27 7
31 43 22 140 -36 206 -49 297 -59 58 -7 141 -17 185 -22 44 -6 107 -9 140 -6
33 3 152 12 264 21 236 17 264 22 363 61 13 5 20 0 28 -19 9 -25 34 -34 55
-18 13 10 45 104 45 134 0 23 -36 56 -115 107 -49 32 -75 -21 -34 -66 19 -20
20 -23 5 -28 -9 -3 -24 -8 -33 -12 -69 -26 -128 -35 -273 -43 -91 -5 -202 -14
-247 -20 -81 -11 -104 -10 -383 20 -73 8 -131 19 -248 47 -31 7 -37 26 -17 56
15 23 15 26 0 41 -22 21 -23 21 -78 -14z"/>
<path d="M4483 2119 c-34 -34 -4 -67 83 -94 182 -56 585 -35 670 36 20 17 18
56 -4 63 -10 4 -41 -3 -67 -15 -77 -34 -263 -51 -410 -37 -66 6 -145 19 -175
30 -30 11 -62 21 -70 24 -8 3 -21 -1 -27 -7z"/>
</g>
</svg>
